<?xml version="1.0" standalone="no"?><!DOCTYPE svg PUBLIC "-//W3C//DTD SVG 1.1//EN" "http://www.w3.org/Graphics/SVG/1.1/DTD/svg11.dtd"><svg t="1548231008939" class="icon" style="" viewBox="0 0 1024 1024" version="1.1" xmlns="http://www.w3.org/2000/svg" p-id="3571" xmlns:xlink="http://www.w3.org/1999/xlink" width="200" height="200"><defs><style type="text/css"></style></defs><path d="M789.2 682.4c-59 0-106.8 47.8-106.8 106.8s47.8 106.8 106.8 106.8c59 0 106.8-47.8 106.8-106.8S848.2 682.4 789.2 682.4z" p-id="3572"></path><path d="M512 682.4c-59 0-106.8 47.8-106.8 106.8S453 896 512 896c59 0 106.8-47.8 106.8-106.8S571 682.4 512 682.4z" p-id="3573"></path><path d="M234.8 682.4c-59 0-106.8 47.8-106.8 106.8S175.8 896 234.8 896c59 0 106.8-47.8 106.8-106.8S293.8 682.4 234.8 682.4z" p-id="3574"></path><path d="M789.2 405.2c-59 0-106.8 47.8-106.8 106.8s47.8 106.8 106.8 106.8c59 0 106.8-47.8 106.8-106.8S848.2 405.2 789.2 405.2z" p-id="3575"></path><path d="M512 405.2c-59 0-106.8 47.8-106.8 106.8s47.8 106.8 106.8 106.8c59 0 106.8-47.8 106.8-106.8S571 405.2 512 405.2z" p-id="3576"></path><path d="M234.8 405.2C175.8 405.2 128 453 128 512s47.8 106.8 106.8 106.8c59 0 106.8-47.8 106.8-106.8S293.8 405.2 234.8 405.2z" p-id="3577"></path><path d="M789.2 341.6c59 0 106.8-47.8 106.8-106.8 0-59-47.8-106.8-106.8-106.8-59 0-106.8 47.8-106.8 106.8C682.4 293.8 730.2 341.6 789.2 341.6z" p-id="3578"></path><path d="M512 128c-59 0-106.8 47.8-106.8 106.8 0 59 47.8 106.8 106.8 106.8 59 0 106.8-47.8 106.8-106.8C618.8 175.8 571 128 512 128z" p-id="3579"></path><path d="M234.8 128C175.8 128 128 175.8 128 234.8c0 59 47.8 106.8 106.8 106.8 59 0 106.8-47.8 106.8-106.8C341.6 175.8 293.8 128 234.8 128z" p-id="3580"></path></svg>