<?xml version="1.0" standalone="no"?><!DOCTYPE svg PUBLIC "-//W3C//DTD SVG 1.1//EN" "http://www.w3.org/Graphics/SVG/1.1/DTD/svg11.dtd"><svg t="1548230780249" class="icon" style="" viewBox="0 0 1024 1024" version="1.1" xmlns="http://www.w3.org/2000/svg" p-id="3345" xmlns:xlink="http://www.w3.org/1999/xlink" width="200" height="200"><defs><style type="text/css"></style></defs><path d="M896 546.002c-42.54 0-78.592 27.998-91.192 65.998l-77.714 0-56.722-170.834c-4.352-13.106-16.606-21.912-30.366-21.912-0.224 0-0.448 0-0.67 0.008-14.032 0.29-26.234 9.688-30.098 23.176l-88.968 310.524L415.564 124.746C413.07 109.786 400.666 96 384 96s-27.386 11.552-31.05 26.27L230.992 612 32 612l0 63.998 224 0c14.696 0 27.5-10.006 31.05-24.268l90.736-364.354 102.648 615.88c2.458 14.754 14.794 23.84 29.728 24.688C510.778 927.98 511.39 928 512 928c14.194 0 26.812-7.402 30.762-21.188l99.488-347.234 31.378 94.504c4.346 13.086 16.584 21.916 30.372 21.916l102.216 0C819.946 711.998 854.954 738 896 738c53.022 0 96-44.984 96-98C992 586.982 949.022 546.002 896 546.002z" p-id="3346"></path></svg>